<svg version="1.1" id="Layer_1" xmlns="http://www.w3.org/2000/svg" xmlns:xlink="http://www.w3.org/1999/xlink" x="0px" y="0px"
	 width="100%" viewBox="0 0 512 512" enable-background="new 0 0 512 512" xml:space="preserve">
<path fill="#000000" opacity="1.000000" stroke="none" 
	d="
M288.000000,513.000000 
	C193.356308,513.000000 99.212593,512.979675 5.069015,513.085083 
	C1.796958,513.088745 0.894657,512.636292 0.897163,509.070801 
	C1.015207,341.111847 1.016838,173.152817 0.891806,5.193908 
	C0.889009,1.436663 1.848645,0.913466 5.304147,0.915457 
	C173.096497,1.012131 340.888885,1.011520 508.681244,0.918806 
	C512.097168,0.916918 513.114075,1.381582 513.111145,5.179275 
	C512.982544,173.138199 512.985168,341.097229 513.101196,509.056183 
	C513.103638,512.591736 512.249207,513.093079 508.945587,513.087891 
	C435.463837,512.973145 361.981903,513.000000 288.000000,513.000000 
z"/>
<path fill="#E5FFF1" opacity="1.000000" stroke="none" 
	d="
M14.536333,96.336433 
	C12.879916,75.790985 17.692188,57.153141 30.423409,41.371826 
	C41.177223,28.041660 55.178257,19.142292 72.401581,15.974329 
	C84.055717,13.830732 95.862404,13.683341 107.629875,13.007449 
	C123.613022,12.089419 139.604645,11.361796 155.600159,10.707158 
	C163.849335,10.369550 172.111389,10.397425 180.357483,10.001377 
	C226.401413,7.789959 272.474731,9.181780 318.530823,9.180837 
	C338.177887,9.180434 357.856018,10.354945 377.509277,11.154058 
	C389.336914,11.634978 401.197632,12.219827 412.994080,13.159705 
	C427.462769,14.312492 442.224609,13.905558 455.952911,20.352655 
	C470.688324,27.272709 482.113068,37.387062 490.251678,51.557156 
	C498.056122,65.145409 500.262634,79.784760 499.908997,95.537628 
	C498.463409,97.486038 496.624908,97.629524 494.784302,97.735565 
	C492.788422,97.850533 490.789032,97.808083 488.791046,97.808105 
	C334.264771,97.809784 179.738480,97.813797 25.212198,97.782768 
	C21.758459,97.782082 18.193403,98.396370 14.536333,96.336433 
z"/>
<path fill="#CBFFEA" opacity="1.000000" stroke="none" 
	d="
M499.501160,419.624878 
	C500.887878,444.891876 492.892761,466.219818 473.797913,482.512177 
	C462.695618,491.985046 449.660004,497.789307 434.771454,499.070801 
	C423.611481,500.031403 412.436432,500.460144 401.270721,501.143951 
	C387.436646,501.991180 373.583832,502.318604 359.764679,503.126617 
	C304.465454,506.359833 249.127304,504.748444 193.809937,504.816406 
	C174.993774,504.839508 156.146820,503.527008 137.315445,502.826599 
	C125.484215,502.386566 113.597038,501.910706 101.819069,500.809082 
	C88.627235,499.575256 75.216866,500.250763 62.368732,495.199371 
	C37.273106,485.332825 21.863279,467.607056 15.977816,441.402802 
	C14.386680,434.318481 13.765618,427.161133 14.089119,419.457550 
	C15.539004,417.510406 17.379816,417.372772 19.221710,417.265106 
	C21.052654,417.158081 22.886969,417.194061 24.719965,417.194061 
	C179.039810,417.192505 333.359650,417.184692 487.679504,417.236725 
	C491.570038,417.238037 495.756836,416.233246 499.501160,419.624878 
z"/>
<path fill="#E0FFF0" opacity="1.000000" stroke="none" 
	d="
M14.082022,96.420372 
	C175.750275,95.998283 337.333649,95.998711 499.375061,95.998489 
	C500.915009,98.276009 501.009064,100.682716 501.036194,103.170380 
	C501.223236,120.338882 502.821381,137.448013 503.298584,154.617615 
	C503.513184,162.337860 503.785370,170.109055 503.942780,177.852570 
	C504.113892,186.270157 505.697418,194.624466 504.908386,203.534454 
	C503.003632,205.887817 500.593506,205.757492 498.285645,205.761642 
	C467.986938,205.816071 437.688110,205.809387 407.389343,205.773895 
	C405.557037,205.771744 403.721619,205.721893 401.543793,204.787918 
	C398.497650,201.422745 399.430023,197.714218 399.427917,193.693970 
	C399.133972,187.096008 399.325989,180.967590 399.401703,174.414917 
	C399.536072,171.661240 399.246521,169.311142 399.517029,167.006470 
	C401.128693,153.274933 387.479523,136.766678 371.134399,138.450043 
	C367.180664,138.857224 363.147675,138.398590 359.157257,138.551529 
	C354.704315,138.722198 353.497711,140.791000 355.730499,144.645386 
	C357.311188,147.374069 359.301514,149.867813 360.494202,152.824707 
	C361.489746,155.292953 362.633789,157.745193 361.582336,160.889847 
	C359.993347,162.430740 358.776001,163.784195 358.201538,165.540085 
	C356.943420,169.385956 354.770294,171.685837 350.308868,171.436646 
	C346.000275,171.195999 345.799072,167.819916 344.528229,164.645630 
	C343.413635,160.071930 342.371155,156.045944 337.851929,153.949310 
	C335.677124,152.940338 335.558868,150.531586 335.544983,147.929077 
	C335.229309,140.384491 335.480591,133.245193 335.395935,126.107941 
	C335.374298,124.282501 335.460175,122.447495 335.121277,120.643135 
	C334.503815,117.355499 332.732819,115.066711 329.208038,114.975746 
	C325.428009,114.878189 323.394012,117.193230 322.892578,120.727394 
	C322.261139,125.178085 322.672058,129.680573 322.610992,134.160019 
	C322.554413,138.310287 322.642609,142.461731 322.523224,147.019531 
	C322.712097,150.814926 321.782379,153.544006 318.467682,155.146851 
	C315.022552,156.812744 314.671295,160.251465 313.850189,163.847183 
	C313.349823,164.964172 312.795807,165.592453 312.672546,166.453278 
	C312.246368,169.429077 310.814972,171.358566 307.519836,171.351852 
	C304.252716,171.345200 301.715088,170.263962 300.520630,166.942612 
	C299.743958,164.783051 299.262115,162.435944 296.930115,160.689621 
	C295.088348,155.434280 297.441895,151.391327 299.737915,147.357239 
	C300.554535,145.922440 301.826324,144.767456 302.520142,143.254471 
	C303.949799,140.137039 303.080475,138.711990 299.417206,138.547394 
	C295.285309,138.361740 291.138763,138.388031 287.004791,138.532608 
	C282.666107,138.684357 281.488708,140.826126 283.745148,144.688873 
	C285.411224,147.540924 287.499115,150.154388 288.627930,153.303329 
	C289.463501,155.634323 290.393250,157.974792 289.489624,160.887741 
	C287.607971,162.573318 285.874390,163.873672 285.055115,165.998581 
	C284.009521,168.710434 282.326385,170.453873 279.121307,170.328537 
	C276.020386,170.207230 274.861542,168.171906 274.039429,165.673737 
	C273.826660,165.027313 273.447235,164.492172 272.740479,163.688950 
	C271.309998,159.518860 270.005188,155.828781 265.864288,153.964828 
	C264.029968,153.139175 263.664612,151.170319 263.567139,148.858032 
	C263.208435,140.999481 263.485535,133.544479 263.393005,126.091904 
	C263.370392,124.270462 263.455414,122.439651 263.116394,120.639198 
	C262.498901,117.359711 260.731781,115.077866 257.216675,114.981216 
	C253.445984,114.877541 251.427078,117.180649 250.897675,120.704796 
	C250.280411,124.813835 250.664566,128.975449 250.614273,133.113739 
	C250.555878,137.917679 250.654663,142.722687 250.516418,147.933014 
	C250.460571,150.764771 250.116119,153.132324 247.672287,154.309021 
	C244.153732,156.003204 242.658325,158.989777 241.727341,162.916519 
	C240.523407,164.390579 239.872574,165.713699 239.365921,167.126511 
	C238.515213,169.498657 236.708588,170.348404 234.311722,170.310287 
	C231.848969,170.271118 230.252365,169.114105 229.498474,166.774109 
	C228.716354,164.346558 227.520111,162.213852 224.967346,160.575027 
	C223.085602,155.885406 225.221619,152.196381 227.022202,148.471039 
	C227.746704,146.972046 228.974243,145.770859 229.846832,144.355103 
	C232.327988,140.329544 231.431610,138.667480 226.616776,138.532944 
	C222.621140,138.421326 218.614883,138.365891 214.623535,138.557999 
	C210.784729,138.742783 209.882599,140.378159 211.788879,143.730270 
	C213.184158,146.183777 215.023270,148.382614 216.096970,151.032227 
	C217.183380,153.713226 218.003403,156.404770 215.989105,159.429688 
	C211.369263,161.287811 206.967575,160.649261 202.157425,160.182190 
	C198.511261,156.701675 193.348389,155.347198 191.625031,149.951981 
	C191.161758,141.573074 191.503387,133.607758 191.389664,125.645966 
	C191.363602,123.821083 191.449539,121.981438 191.028488,120.192764 
	C190.309097,117.136673 188.513565,115.082359 185.238037,114.978584 
	C181.716141,114.867012 179.631577,116.910339 178.996124,120.217743 
	C178.208954,124.314873 178.678482,128.493668 178.619354,132.636520 
	C178.543564,137.945755 178.679184,143.256653 178.491302,148.984940 
	C178.364258,151.518951 177.664124,153.347031 175.683899,154.329956 
	C173.100098,155.612473 171.402023,157.934174 168.779297,159.816025 
	C163.689972,160.986954 158.985718,160.921310 153.887146,159.933777 
	C151.114105,157.561127 152.499161,155.121414 153.186752,152.832184 
	C154.203934,149.445526 156.442352,146.688934 158.222702,143.689178 
	C160.091507,140.540344 159.269073,138.753281 155.826782,138.630814 
	C149.515228,138.406219 143.184738,138.231064 136.875488,138.775620 
	C126.637077,139.659286 113.081985,151.697769 114.458008,164.133316 
	C114.784904,167.087524 114.582283,170.115952 114.510864,173.542938 
	C114.517082,179.565033 115.568291,185.209839 113.365578,191.080261 
	C110.832733,192.964493 108.280968,192.765610 105.800438,192.768448 
	C76.637901,192.801773 47.475311,192.809433 18.312820,192.758011 
	C15.363810,192.752808 12.236361,193.154770 9.495118,190.368469 
	C10.718725,180.527496 9.490474,170.969009 10.057104,161.479385 
	C10.938188,146.723480 11.292735,131.930115 12.333291,117.212006 
	C12.810276,110.465302 11.492989,103.444321 14.082022,96.420372 
z"/>
<path fill="#D0FFEB" opacity="1.000000" stroke="none" 
	d="
M499.908936,419.564972 
	C497.125397,419.018494 494.320648,418.980591 491.477264,418.980957 
	C332.679016,419.002258 173.880768,418.999756 14.624453,418.999084 
	C11.806096,410.665527 12.925066,402.026733 12.275249,393.559723 
	C11.405442,382.226318 11.264378,370.763672 10.752728,359.386871 
	C10.041292,343.567719 9.941376,327.728241 9.088580,311.459473 
	C10.991987,309.114868 13.394951,309.240631 15.696955,309.236633 
	C46.081387,309.183838 76.465881,309.182556 106.850349,309.229095 
	C108.678383,309.231873 110.508377,309.302704 112.656326,310.308838 
	C114.545219,312.155853 114.696426,314.156006 114.709473,316.134705 
	C114.761627,324.047638 114.942505,331.961884 114.587036,340.359009 
	C114.967255,350.791351 114.716461,360.741333 114.621529,371.155701 
	C115.256241,390.082428 124.781662,399.304810 143.244507,399.307404 
	C219.205246,399.318146 295.165985,399.332520 371.126740,399.295441 
	C385.023804,399.288666 395.429657,391.517944 398.612640,379.092072 
	C399.326233,376.306366 399.122955,373.462738 399.466461,370.189758 
	C399.056335,358.188568 399.203491,346.655304 399.421417,334.635559 
	C399.285583,331.176117 398.926544,328.185181 400.612671,324.966858 
	C403.126160,323.048553 405.666199,323.229767 408.136292,323.226959 
	C437.331024,323.193573 466.525879,323.169586 495.720398,323.257690 
	C498.735596,323.266785 502.205719,322.559357 504.066284,326.636780 
	C504.034241,332.633270 503.933075,338.133209 504.019409,343.630157 
	C504.196411,354.901215 503.041992,366.122711 502.787598,377.385254 
	C502.524200,389.047546 500.926239,400.693237 501.014465,412.406097 
	C501.031860,414.719849 499.344513,416.742432 499.908936,419.564972 
z"/>
<path fill="#D7FFED" opacity="1.000000" stroke="none" 
	d="
M504.440430,326.919891 
	C502.753815,324.307617 500.175415,325.021149 497.942322,325.019135 
	C465.978821,324.990204 434.015289,324.998077 401.591309,324.994629 
	C399.337646,323.560883 399.329132,321.487427 399.308624,319.508423 
	C399.248230,313.678314 399.065948,307.845490 399.427185,301.532043 
	C399.074554,291.042664 399.167542,281.037231 399.426331,270.549927 
	C399.070038,260.424835 399.192200,250.780151 399.420898,240.659271 
	C399.110809,233.548691 399.251160,226.911911 399.418457,219.809845 
	C399.282684,215.941711 399.234497,212.538635 399.484161,208.669098 
	C399.552826,206.932175 399.677124,205.685547 400.800537,204.295822 
	C435.414978,203.994110 469.666016,203.996399 504.375092,203.997742 
	C504.888092,239.583267 504.950928,275.169708 504.989380,310.756165 
	C504.995148,316.072418 504.886200,321.388763 504.440430,326.919891 
z"/>
<path fill="#D8FFEE" opacity="1.000000" stroke="none" 
	d="
M113.212967,310.670471 
	C78.585938,310.991638 44.334248,310.995422 9.624485,310.998444 
	C9.114400,270.972931 9.062384,230.948196 9.088268,190.460342 
	C11.555317,190.776611 13.988523,191.033661 16.515860,191.029968 
	C48.317341,190.983521 80.118912,190.998383 112.378922,190.995438 
	C113.370903,191.350098 113.767189,191.822052 114.162872,192.856384 
	C114.945015,197.896545 114.668961,202.506149 114.529358,207.574982 
	C114.760551,211.446762 114.808708,214.857025 114.531929,218.738556 
	C114.896873,226.836670 114.822670,234.465057 114.559921,242.572998 
	C114.943207,254.001572 114.817398,264.952087 114.578308,276.382507 
	C114.873993,287.107391 114.868279,297.352509 114.439606,308.075195 
	C114.191269,309.195740 113.940918,309.795715 113.212967,310.670471 
z"/>
<path fill="#3FD2A4" opacity="1.000000" stroke="none" 
	d="
M113.538834,208.333374 
	C113.127258,203.302521 113.084320,198.611038 113.104843,193.456940 
	C115.647446,190.646393 118.781349,191.229813 121.710419,191.223465 
	C147.005005,191.168594 172.299744,191.193146 197.594437,191.192993 
	C261.996063,191.192612 326.397675,191.184891 390.799286,191.215103 
	C393.925018,191.216568 397.150269,190.715393 400.473145,192.658829 
	C400.911652,196.357544 400.978668,199.720062 401.104797,203.537216 
	C401.091278,205.060577 401.018616,206.129318 400.886963,207.595978 
	C398.354736,210.353180 395.219757,209.769241 392.291138,209.776245 
	C368.661255,209.832733 345.031189,209.806747 321.401184,209.806885 
	C255.337006,209.807251 189.272842,209.814789 123.208672,209.784866 
	C120.082939,209.783447 116.857597,210.283356 113.538834,208.333374 
z"/>
<path fill="#39CFA4" opacity="1.000000" stroke="none" 
	d="
M400.906494,192.530457 
	C305.256744,192.996078 209.668869,192.997147 113.624634,192.996277 
	C113.104927,192.548050 113.041557,192.101746 112.907776,191.324371 
	C112.898735,185.301025 112.960098,179.608765 113.091240,173.452484 
	C114.851631,171.258011 117.069077,171.315155 119.211685,171.311813 
	C130.491791,171.294235 141.772308,171.162521 153.483810,171.363678 
	C156.672119,171.113754 158.103912,173.097137 159.560959,174.863342 
	C164.773575,181.181961 171.205719,184.412552 179.592300,183.594849 
	C183.369858,183.226547 187.214294,183.468536 191.026093,183.543716 
	C200.938049,183.739227 208.212662,179.458527 212.960739,170.797516 
	C213.756393,169.346191 214.464737,167.828995 216.247650,166.675995 
	C219.222305,166.268326 221.842972,166.623047 224.848083,166.434784 
	C227.551239,167.275345 228.189484,169.481583 229.298843,171.293930 
	C234.125549,179.179245 240.482422,184.297791 250.406631,183.592484 
	C254.871124,183.275208 259.379395,183.442307 263.863403,183.558411 
	C273.349030,183.803986 279.934357,179.197678 284.649719,171.373444 
	C285.757812,169.534729 286.517975,167.447433 288.864105,166.096008 
	C291.436615,165.322052 293.659058,165.399765 296.291962,165.794617 
	C299.137604,166.758850 300.034241,168.985077 301.155670,171.000687 
	C305.804474,179.356506 312.366302,184.315598 322.466431,183.571106 
	C326.757111,183.254822 331.100037,183.336197 335.402557,183.558273 
	C342.969818,183.948868 348.892334,180.874863 353.860046,175.455307 
	C355.411133,173.763153 356.704987,171.718903 359.624451,171.120300 
	C370.990509,171.476303 381.926971,171.175125 392.860504,171.291077 
	C395.324890,171.317200 397.857666,171.021759 400.488922,172.673523 
	C400.882111,179.347641 400.925232,185.706772 400.906494,192.530457 
z"/>
<path fill="#2DCAA2" opacity="1.000000" stroke="none" 
	d="
M155.264984,171.226837 
	C153.744125,173.681610 151.583847,172.961823 149.704651,172.970734 
	C137.828430,173.027023 125.951813,172.997253 113.618164,172.992188 
	C113.244858,165.802094 111.733215,158.420227 115.878456,151.743057 
	C121.294739,143.018524 128.811783,137.557358 139.298996,137.057159 
	C144.942978,136.787949 150.610672,136.925461 156.265106,137.025146 
	C157.795624,137.052109 160.091812,136.072678 160.707245,137.988129 
	C161.378036,140.076004 161.706818,142.587112 159.754425,144.539566 
	C155.961670,148.332489 154.023087,153.025085 153.217300,158.616516 
	C155.205002,162.715302 154.514587,166.914078 155.264984,171.226837 
z"/>
<path fill="#2DCAA2" opacity="1.000000" stroke="none" 
	d="
M400.898712,172.527557 
	C388.964203,172.992340 377.089386,173.000931 365.214600,172.995331 
	C363.246765,172.994400 361.238922,173.220963 358.989685,172.044464 
	C357.307861,168.168137 359.310486,165.002777 360.552917,161.330658 
	C361.072174,155.570938 358.925598,151.035034 355.590637,146.965408 
	C354.450043,145.573517 353.159973,144.439484 352.959534,142.375916 
	C352.597565,138.649063 353.112152,136.501877 357.777954,136.877304 
	C363.381531,137.328217 369.047791,136.989044 374.686798,137.012955 
	C388.607971,137.072006 400.616211,150.758652 400.951233,163.111343 
	C401.032135,166.094284 400.960114,169.081390 400.898712,172.527557 
z"/>
<path fill="#DCFEEE" opacity="1.000000" stroke="none" 
	d="
M155.419678,171.847351 
	C152.643326,168.025864 153.134766,163.900543 153.161362,159.432495 
	C158.181610,158.994720 163.115631,158.997238 168.514740,158.999420 
	C170.152573,159.837082 170.379379,161.186584 170.792526,162.419861 
	C171.866531,165.625687 174.161423,167.221924 177.447021,167.375732 
	C182.383713,167.606827 187.325043,167.461899 192.265381,167.432510 
	C197.583344,167.400879 198.880997,163.357773 200.720764,159.253677 
	C205.909927,158.968872 210.802475,158.938614 216.203827,158.861099 
	C219.083237,161.045639 218.734421,163.528122 216.988220,166.305817 
	C210.863907,180.500244 204.101959,184.998825 188.794235,185.001389 
	C185.636887,185.001907 182.454056,184.741455 179.326813,185.048233 
	C168.428360,186.117401 161.146591,180.803955 155.419678,171.847351 
z"/>
<path fill="#DCFEEE" opacity="1.000000" stroke="none" 
	d="
M288.866852,166.662659 
	C283.200500,180.005173 275.930878,184.987885 261.945374,185.000870 
	C258.294617,185.004272 254.643814,185.011627 250.993088,184.999191 
	C237.621094,184.953659 230.521957,179.907852 225.596054,166.814194 
	C223.033951,164.866943 223.497513,162.775101 224.840042,160.299850 
	C228.930710,159.808304 229.895432,162.527985 230.567429,165.313110 
	C231.111771,167.569107 231.658722,169.204544 234.614700,169.083328 
	C237.235229,168.975906 238.087723,167.916687 238.112015,165.519547 
	C238.124908,164.246552 238.985809,163.442947 240.606186,163.055481 
	C248.243088,169.792450 257.152191,167.211685 265.572357,167.253738 
	C268.493683,167.268311 270.048523,164.594452 272.635010,163.098877 
	C274.975403,163.156937 275.979706,164.267334 275.977722,166.189224 
	C275.975525,168.303131 277.030365,169.088699 279.034607,169.001068 
	C280.812286,168.923370 282.325348,169.145981 283.174591,166.691849 
	C283.969910,164.393524 284.179321,160.943726 288.410400,160.998688 
	C290.623199,162.651703 290.559326,164.496246 288.866852,166.662659 
z"/>
<path fill="#DCFEEE" opacity="1.000000" stroke="none" 
	d="
M360.428406,161.008041 
	C361.382538,164.619949 359.884552,167.840179 358.695282,171.517975 
	C352.571716,181.055206 344.404419,185.852402 333.150665,185.058151 
	C326.881042,184.615646 320.323822,185.790085 314.338043,184.371475 
	C305.796234,182.347061 300.706238,175.709778 297.751709,167.158493 
	C294.880127,165.234482 295.424103,162.995377 296.822021,160.332520 
	C299.677704,160.321152 300.913818,161.640793 301.268799,164.201279 
	C301.724823,167.490845 302.905457,169.963852 307.145599,170.116943 
	C311.442657,170.272079 310.753815,167.318039 311.398651,164.959763 
	C311.499237,164.591766 312.139526,164.371353 312.926636,163.998581 
	C320.544159,169.210907 328.838837,167.281891 336.825623,167.389709 
	C339.721893,167.428818 341.585022,165.224609 344.278229,163.945221 
	C345.935638,164.087616 347.003296,164.627502 346.917633,166.060074 
	C346.738281,169.058365 347.989685,170.171555 351.015442,170.064545 
	C353.805603,169.965836 355.689423,169.588699 356.244812,166.226868 
	C356.585632,164.163879 357.122742,161.507721 360.428406,161.008041 
z"/>
<path fill="#23C5A1" opacity="1.000000" stroke="none" 
	d="
M177.527191,150.316071 
	C177.111282,140.532578 176.966370,131.075485 177.032318,121.619873 
	C177.068039,116.496925 180.264206,113.142502 184.776505,113.015892 
	C189.480927,112.883904 192.911621,116.342003 192.970886,121.678955 
	C193.072250,130.804977 192.971558,139.933243 192.893692,149.524780 
	C187.962631,152.785706 182.939743,152.066483 177.527191,150.316071 
z"/>
<path fill="#23C5A1" opacity="1.000000" stroke="none" 
	d="
M249.526077,149.316040 
	C249.110382,139.865570 248.964066,130.741272 249.032288,121.618584 
	C249.070602,116.496597 252.264603,113.142525 256.776428,113.015900 
	C261.480377,112.883881 264.908569,116.341621 264.971039,121.677513 
	C265.074005,130.470612 264.972137,139.266113 264.894836,148.524857 
	C259.963165,151.785782 254.939606,151.067276 249.526077,149.316040 
z"/>
<path fill="#2DCAA2" opacity="1.000000" stroke="none" 
	d="
M344.727875,163.502975 
	C342.493408,167.787628 339.172852,169.260193 334.775940,169.032257 
	C330.658539,168.818817 326.519867,168.916306 322.393372,169.006241 
	C318.608521,169.088699 315.603973,167.889694 313.554657,164.151871 
	C312.359192,158.952621 313.730865,154.980865 318.799225,153.408478 
	C321.673920,152.516632 320.784576,150.562317 321.097015,148.397644 
	C326.037659,145.225693 331.060822,145.942078 336.473877,147.665649 
	C336.754700,150.870453 337.213562,152.982346 340.630066,154.172348 
	C344.521149,155.527603 345.398804,159.177338 344.727875,163.502975 
z"/>
<path fill="#23C5A1" opacity="1.000000" stroke="none" 
	d="
M336.895935,147.526184 
	C331.914673,147.992523 326.995178,147.994415 321.620789,147.993469 
	C321.109619,139.199570 320.961761,130.407776 321.032196,121.617737 
	C321.073242,116.496422 324.264771,113.142616 328.776276,113.015892 
	C333.479828,112.883774 336.905273,116.341293 336.971252,121.676308 
	C337.075836,130.136765 336.972900,138.599792 336.895935,147.526184 
z"/>
<path fill="#2DCAA2" opacity="1.000000" stroke="none" 
	d="
M249.097839,149.380203 
	C254.085770,148.991318 259.004547,148.993454 264.378174,148.992355 
	C265.203064,150.743713 264.517120,152.733826 267.363983,153.519928 
	C271.500397,154.662094 273.214294,157.934479 272.986633,162.599823 
	C271.028748,167.439560 267.641449,169.309097 262.771393,169.034210 
	C258.669922,168.802689 254.542313,168.892929 250.431198,169.011597 
	C246.186996,169.134125 243.114334,167.515289 241.180435,163.284210 
	C240.713043,158.228363 242.350479,154.571793 247.241089,153.213409 
	C249.366440,152.623077 248.874496,151.138351 249.097839,149.380203 
z"/>
<path fill="#2DCAA2" opacity="1.000000" stroke="none" 
	d="
M177.096603,150.366287 
	C182.086304,149.991150 187.004242,149.993256 192.376923,149.992188 
	C192.845444,151.793594 193.433685,152.972290 195.449860,153.465515 
	C198.018250,154.093826 199.603043,156.043213 200.825623,158.714600 
	C200.677185,166.532318 198.168503,168.948288 190.611771,168.983398 
	C186.639069,169.001862 182.665848,169.021011 178.693497,168.978500 
	C172.056992,168.907486 169.536133,166.487061 169.010696,159.399048 
	C170.323715,156.259491 172.061172,153.890442 175.239609,153.188873 
	C176.689194,152.868896 177.074448,152.028549 177.096603,150.366287 
z"/>
<path fill="#2DCAA2" opacity="1.000000" stroke="none" 
	d="
M225.153900,159.604797 
	C225.245331,161.905869 225.283066,163.816010 225.355270,166.123978 
	C222.830276,168.905899 220.020645,168.261032 216.884277,166.854431 
	C216.695129,164.192444 216.798401,161.876160 216.807144,159.186859 
	C216.231552,153.529938 214.394577,148.779297 210.622742,145.016342 
	C208.500168,142.898788 208.550400,140.379044 209.261154,138.121750 
	C209.948669,135.938324 212.421036,137.090240 214.073502,137.035278 
	C218.706818,136.881149 223.352097,136.879181 227.985184,137.036652 
	C229.624802,137.092361 232.077225,135.927521 232.756424,138.176025 
	C233.386169,140.260803 233.682007,142.771500 231.644485,144.666351 
	C227.426056,148.589386 225.688568,153.647797 225.153900,159.604797 
z"/>
<path fill="#2DCAA2" opacity="1.000000" stroke="none" 
	d="
M297.153931,159.604813 
	C297.278442,162.003937 297.349304,164.012161 297.503723,166.445282 
	C294.868469,166.892548 292.149628,166.914917 288.917664,166.903046 
	C288.579712,165.189224 288.754944,163.509644 288.858826,161.412842 
	C288.980408,155.583115 286.962524,150.987717 283.561707,146.911636 
	C282.517731,145.660400 281.157532,144.690369 281.025482,142.791687 
	C280.776703,139.215469 280.564178,136.259613 285.891937,136.867294 
	C290.655731,137.410645 295.532410,136.904419 300.355072,137.027023 
	C301.868042,137.065475 304.147858,136.024002 304.738647,138.070023 
	C305.350250,140.188156 305.716187,142.704926 303.688263,144.605301 
	C299.467224,148.560883 297.685669,153.618042 297.153931,159.604813 
z"/>
<path fill="#8BF3AF" opacity="1.000000" stroke="none" 
	d="
M400.505798,369.656982 
	C403.140503,386.814270 388.226410,401.278412 371.272034,401.185547 
	C294.516327,400.765106 217.756653,400.872223 140.999344,401.102295 
	C124.306129,401.152344 112.125740,388.061035 113.078415,372.428528 
	C118.355911,370.535858 123.548645,371.056091 129.104950,372.602295 
	C130.694794,374.308868 131.196579,376.115936 132.107147,377.700745 
	C133.989563,380.977051 136.787872,382.790070 140.567551,383.098663 
	C142.896225,383.288818 145.227737,383.263580 147.559174,383.263672 
	C220.518280,383.266510 293.477386,383.266113 366.436493,383.265411 
	C367.769073,383.265381 369.101929,383.277679 370.434143,383.244812 
	C378.480103,383.046356 381.045837,381.061676 383.182343,373.367889 
	C383.450012,372.403900 383.688629,371.434143 384.432312,370.138855 
	C389.794800,367.416534 394.947174,367.789703 400.505798,369.656982 
z"/>
<path fill="#7DEDAE" opacity="1.000000" stroke="none" 
	d="
M400.919952,369.516724 
	C395.931549,369.986542 390.981903,369.990570 385.572632,369.989441 
	C384.102142,369.244507 383.566895,368.165863 383.541443,366.996887 
	C383.307465,356.255402 382.434326,345.500824 384.316132,334.357971 
	C389.652679,331.256226 394.859589,331.850250 400.476837,333.639252 
	C400.888062,345.664368 400.923401,357.357635 400.919952,369.516724 
z"/>
<path fill="#6BE5AB" opacity="1.000000" stroke="none" 
	d="
M400.895447,333.524902 
	C395.920593,333.977417 390.988464,333.983673 385.598541,333.981995 
	C384.113525,333.249176 383.578125,332.170502 383.549133,331.001770 
	C383.307220,321.254486 382.418335,311.492493 384.321350,301.347778 
	C389.660370,298.267426 394.862823,298.839539 400.473938,300.653748 
	C400.908752,308.678680 400.969879,316.369537 401.080933,324.526306 
	C401.066620,327.687683 401.002380,330.383148 400.895447,333.524902 
z"/>
<path fill="#73E9AC" opacity="1.000000" stroke="none" 
	d="
M112.893204,311.454834 
	C112.897537,310.539825 112.957443,310.091797 113.079468,309.310425 
	C118.139412,306.138916 123.324120,307.025970 128.928589,308.499847 
	C129.838242,309.465515 130.310410,310.199432 130.350403,311.030670 
	C130.819275,320.773224 131.518707,330.521545 129.671738,340.664734 
	C124.322067,343.717590 119.121056,343.189606 113.509415,341.318481 
	C113.072975,331.297028 113.010880,321.609436 112.893204,311.454834 
z"/>
<path fill="#7DEDAE" opacity="1.000000" stroke="none" 
	d="
M113.083466,341.452362 
	C118.074600,340.988312 123.014130,340.992004 128.412247,340.991272 
	C130.187256,341.965759 130.554031,343.422089 130.604004,344.906799 
	C130.880142,353.113037 130.952545,361.321686 130.559906,369.527008 
	C130.512619,370.515167 130.160660,371.452942 129.252319,372.642242 
	C123.899605,372.651367 118.826958,373.848267 113.521957,372.055817 
	C113.091751,361.965302 113.061806,351.942688 113.083466,341.452362 
z"/>
<path fill="#43D4A5" opacity="1.000000" stroke="none" 
	d="
M113.106804,208.448914 
	C208.752213,207.995285 304.334229,207.996552 400.372070,207.995850 
	C400.867615,211.357193 400.907318,214.720505 400.888947,218.538269 
	C398.357544,221.351089 395.222900,220.769409 392.293823,220.776398 
	C368.663452,220.832626 345.032928,220.806732 321.402435,220.806870 
	C255.336945,220.807266 189.271454,220.814774 123.205963,220.784836 
	C120.080246,220.783417 116.854645,221.283966 113.536140,219.331848 
	C113.125908,215.629852 113.084663,212.266830 113.106804,208.448914 
z"/>
<path fill="#48D6A6" opacity="1.000000" stroke="none" 
	d="
M113.103584,219.458344 
	C208.751144,218.994400 304.335144,218.995956 400.375000,218.995117 
	C400.868500,225.679901 400.906128,232.367081 400.889801,239.518860 
	C395.851440,242.892929 390.666901,241.973053 385.068878,240.495209 
	C383.064362,238.023560 383.333893,235.464355 383.223114,232.986618 
	C382.963989,227.192108 382.710815,226.940735 376.772705,226.791931 
	C375.773438,226.766891 374.773590,226.777649 373.773987,226.777634 
	C295.971527,226.776917 218.169083,226.775406 140.366623,226.779251 
	C129.817673,226.779770 130.892883,226.800018 130.761612,236.338257 
	C130.734116,238.336502 130.749268,240.345886 129.667725,242.657562 
	C124.333687,245.730576 119.138435,245.178650 113.537369,243.322296 
	C113.125107,235.296738 113.082558,227.610291 113.103584,219.458344 
z"/>
<path fill="#61E1A9" opacity="1.000000" stroke="none" 
	d="
M400.900665,300.522583 
	C395.922943,300.990082 390.998291,300.992371 385.617065,300.990845 
	C383.673187,299.885376 383.519440,298.285522 383.509460,296.141022 
	C383.419617,287.305054 382.417572,278.928040 384.406158,270.207214 
	C389.749725,267.373322 394.910889,267.817474 400.475281,269.653137 
	C400.881989,280.008789 400.917877,290.033051 400.900665,300.522583 
z"/>
<path fill="#55DBA8" opacity="1.000000" stroke="none" 
	d="
M400.898865,269.519531 
	C395.919037,269.988007 390.991943,269.991486 385.607697,269.990112 
	C384.464752,269.482056 383.860382,268.827362 383.801941,267.999969 
	C383.157043,258.867065 382.199036,249.722168 384.784698,240.318588 
	C390.083801,239.988602 395.006378,239.991516 400.382385,239.988953 
	C400.874451,249.673813 400.913025,259.364166 400.898865,269.519531 
z"/>
<path fill="#55DBA8" opacity="1.000000" stroke="none" 
	d="
M113.101425,243.449188 
	C118.085457,242.986801 123.003258,242.990402 128.377167,242.989655 
	C129.876648,243.697098 130.413757,244.776871 130.447159,245.946838 
	C130.735260,256.039612 131.539215,266.144348 129.686249,276.637756 
	C124.346596,279.738190 119.143799,279.172699 113.534882,277.320435 
	C113.121597,265.959534 113.078392,254.937363 113.101425,243.449188 
z"/>
<path fill="#61E1A9" opacity="1.000000" stroke="none" 
	d="
M113.099747,277.448120 
	C118.084480,276.985382 123.004166,276.989075 128.380188,276.988403 
	C131.421173,279.363007 130.606171,282.534210 130.701813,285.439270 
	C130.805695,288.593903 130.892883,291.762329 130.569565,295.402191 
	C130.594345,300.063171 131.475342,304.304413 129.214844,308.654022 
	C123.915329,308.981262 118.982445,308.986938 113.595566,308.984863 
	C113.105942,298.622894 113.070320,288.268677 113.099747,277.448120 
z"/>
<path fill="#D3FFEC" opacity="1.000000" stroke="none" 
	d="
M128.908356,309.443115 
	C128.908875,304.955017 128.969528,300.934418 129.087234,296.453522 
	C130.530258,294.526581 132.367218,294.308838 134.210114,294.297729 
	C152.367188,294.188293 170.524460,294.145203 188.681442,294.317261 
	C189.681915,294.326752 190.669373,294.516174 192.077423,295.012390 
	C193.082092,295.543671 193.516876,295.996918 193.991089,296.999084 
	C194.971390,304.557770 194.268387,311.829926 196.221649,319.258942 
	C197.886780,327.889709 201.542557,335.177765 206.714172,342.170593 
	C231.482666,375.670349 281.641083,375.986969 306.812622,342.783142 
	C311.896118,335.829315 315.753174,328.692108 317.662018,320.198181 
	C318.933777,314.077118 319.605865,308.291382 319.512390,301.980865 
	C319.292511,299.623108 319.503601,297.788483 320.844482,295.750854 
	C322.812225,294.382080 324.646118,294.266174 326.476624,294.257904 
	C343.922668,294.178925 361.368835,294.193237 378.814880,294.250366 
	C380.642181,294.256348 382.483459,294.315002 384.485962,295.662476 
	C384.923187,297.381592 384.990601,298.770020 385.109253,300.572693 
	C385.125305,311.672791 385.090179,322.358612 385.097900,333.509216 
	C385.105774,345.666809 385.070740,357.359558 385.074371,369.518311 
	C384.581177,381.589081 381.042145,384.993469 369.501343,384.993561 
	C293.907990,384.994080 218.314651,384.996216 142.721313,384.990234 
	C134.287811,384.989563 130.356842,381.752655 128.933746,373.371277 
	C128.914276,362.629852 128.944168,352.275970 128.922455,341.454468 
	C128.903381,330.628113 128.935944,320.269348 128.908356,309.443115 
z"/>
<path fill="#D8FFEE" opacity="1.000000" stroke="none" 
	d="
M193.621796,295.861328 
	C172.204483,296.017639 151.130798,296.007690 129.600708,295.995483 
	C129.084930,289.967438 129.025574,283.941650 128.901398,277.449951 
	C128.879547,265.961731 128.922562,254.939423 128.899414,243.451202 
	C128.885864,238.988419 129.276276,234.959747 128.903595,231.002930 
	C128.460541,226.298965 129.812805,224.828537 134.807693,224.869415 
	C165.966354,225.124435 197.128143,224.998077 228.288895,224.998077 
	C278.612671,224.998077 328.936615,225.050858 379.259949,224.905807 
	C383.658295,224.893112 385.714996,225.783737 385.078491,230.570236 
	C384.708588,233.351791 385.036896,236.226181 385.106140,239.522247 
	C385.122498,249.675537 385.083771,259.365356 385.097778,269.520264 
	C385.088257,278.344208 385.026001,286.703094 384.909729,295.527588 
	C363.801971,295.999603 342.748169,296.006012 321.208405,296.020569 
	C317.278656,291.554291 317.216217,285.664307 314.393738,280.910156 
	C313.575439,279.531891 313.285065,277.850525 312.397583,276.060883 
	C309.446686,271.069519 306.213196,266.743042 302.121765,262.618469 
	C289.860229,249.192642 274.948944,242.426880 257.137054,242.460205 
	C239.831696,242.492584 224.943161,248.646927 212.385788,261.162109 
	C207.300217,266.361969 202.768829,271.513733 199.999512,278.375610 
	C198.423386,282.724701 196.840790,286.684204 196.269821,290.952728 
	C196.027756,292.762421 195.481644,294.478546 193.621796,295.861328 
z"/>
<path fill="#73E9AC" opacity="1.000000" stroke="none" 
	d="
M206.368546,343.263428 
	C200.483719,336.871216 197.505371,329.467926 195.195724,321.356720 
	C197.029465,319.081604 199.449081,319.240295 201.754181,319.236877 
	C238.581604,319.182556 275.409088,319.186768 312.236542,319.228088 
	C314.231232,319.230316 316.253510,319.221252 318.426239,320.642273 
	C317.205719,329.054413 313.294250,336.035645 308.356445,342.850952 
	C305.735962,344.548920 303.128906,344.808228 300.420654,344.807587 
	C271.473145,344.800873 242.525650,344.808868 213.578140,344.794373 
	C211.240005,344.793182 208.905273,344.768341 206.368546,343.263428 
z"/>
<path fill="#6BE5AB" opacity="1.000000" stroke="none" 
	d="
M318.911530,320.596008 
	C277.893646,320.987427 236.996628,320.990692 195.648865,320.989197 
	C192.982697,313.753479 192.613327,306.359070 193.378448,298.427979 
	C194.730728,296.585815 196.413803,296.350983 198.077866,296.338013 
	C213.905975,296.214478 229.734604,296.076996 245.562088,296.403992 
	C246.226685,296.417694 246.878311,296.603546 247.947662,296.952332 
	C250.873093,298.798401 250.358963,301.499481 250.654785,303.909546 
	C251.330154,309.412170 253.180740,311.250305 258.648987,311.370636 
	C264.808289,311.506195 270.971710,311.444885 277.132751,311.396667 
	C284.557190,311.338562 285.420746,310.674072 287.786224,303.597046 
	C287.999023,302.960327 288.304138,302.373016 289.052704,301.541718 
	C299.636383,299.642822 309.860718,299.544250 320.436188,301.651215 
	C321.428131,308.176666 320.649628,314.232727 318.911530,320.596008 
z"/>
<path fill="#7DEDAE" opacity="1.000000" stroke="none" 
	d="
M206.057709,343.345215 
	C239.657608,343.025909 273.389618,343.018372 307.597168,343.021729 
	C298.761353,356.679932 285.505737,364.641846 269.676117,367.681915 
	C245.593613,372.307007 225.143585,364.847565 208.511200,346.887207 
	C207.617172,345.921814 206.958221,344.738739 206.057709,343.345215 
z"/>
<path fill="#61E1A9" opacity="1.000000" stroke="none" 
	d="
M320.839539,301.560486 
	C310.444977,301.998932 300.098694,302.013885 289.270905,302.049194 
	C283.079712,298.425568 276.697998,298.550110 270.261536,298.535034 
	C264.809021,298.522247 263.458740,297.161469 263.457825,291.731110 
	C263.456848,286.123962 262.940979,280.550934 263.170227,274.637421 
	C265.324524,273.273987 267.327881,273.253418 269.312286,273.245636 
	C281.728912,273.196838 294.145691,273.199799 306.562317,273.244019 
	C308.545868,273.251099 310.555603,273.244110 312.725739,274.678894 
	C316.565399,281.390198 319.275787,288.082489 320.577271,295.680084 
	C320.777557,297.731445 320.832703,299.434235 320.839539,301.560486 
z"/>
<path fill="#61E1A9" opacity="1.000000" stroke="none" 
	d="
M249.222046,297.649963 
	C230.682037,297.988220 212.519394,297.988861 193.936432,297.984497 
	C193.438278,297.548676 193.360443,297.117798 193.280396,296.357239 
	C195.162094,290.212677 195.970673,284.077759 198.795090,278.240356 
	C200.487350,276.639343 202.274429,276.307953 204.128433,276.290558 
	C217.561920,276.164429 230.995712,276.157806 244.429184,276.295258 
	C245.760498,276.308868 247.072327,276.532104 248.729767,277.362976 
	C251.814346,284.136597 251.251175,290.712219 249.222046,297.649963 
z"/>
<path fill="#55DBA8" opacity="1.000000" stroke="none" 
	d="
M210.924042,261.400574 
	C230.055664,238.259644 270.110809,234.344910 293.321442,252.678818 
	C296.720123,255.363403 299.753632,258.341949 302.961426,261.650696 
	C301.912903,264.548889 299.461639,264.677277 297.159027,264.690491 
	C270.387054,264.844086 243.614578,264.850983 216.842621,264.687408 
	C214.532135,264.673309 212.094376,264.500763 210.924042,261.400574 
z"/>
<path fill="#5ADEA8" opacity="1.000000" stroke="none" 
	d="
M210.652145,261.073761 
	C211.875229,262.961578 213.686325,263.009827 215.582397,263.008820 
	C243.374130,262.994171 271.165863,263.006378 298.957581,262.967590 
	C300.083069,262.966034 301.207977,262.525421 302.726318,262.118622 
	C307.425049,265.241760 309.973907,269.942444 313.059998,274.613892 
	C296.674744,274.982117 280.216797,275.007568 263.277954,275.054871 
	C258.081665,274.295898 253.496155,274.070923 249.562012,278.080475 
	C232.816620,278.049561 216.411377,278.027740 199.544617,278.014771 
	C200.776901,271.041718 205.979599,266.418304 210.652145,261.073761 
z"/>
<path fill="#D3FFEC" opacity="1.000000" stroke="none" 
	d="
M249.174316,278.532288 
	C253.385880,272.470245 256.151245,271.762360 262.474548,274.919128 
	C265.666992,278.649200 264.985718,282.888733 264.999817,286.982422 
	C265.034241,296.984558 265.017181,296.984589 275.228394,296.984894 
	C276.717010,296.984924 278.208527,297.045837 279.693665,296.974274 
	C283.507629,296.790558 286.475891,298.124390 288.552063,301.832672 
	C289.248077,310.110107 286.572784,312.982330 278.557770,313.005066 
	C272.077515,313.023438 265.597137,313.022461 259.116882,313.005066 
	C251.551163,312.984772 249.058701,310.475250 249.000519,302.873535 
	C248.990341,301.544434 248.973724,300.215363 248.902390,298.436951 
	C248.938721,291.656128 249.032745,285.324677 249.174316,278.532288 
z"/>
</svg>